<?xml version="1.0" encoding="UTF-8"?> <svg xmlns="http://www.w3.org/2000/svg" width="140" height="52" viewBox="0 0 140 52" fill="none"><path d="M42.4426 7.89312C44.2889 7.89312 45.7425 8.47671 46.8036 9.64387C47.8646 10.7898 48.3952 12.3177 48.3952 14.2276V24H44.0979V14.8325C44.0979 13.8987 43.8432 13.156 43.3339 12.6042C42.8246 12.0525 42.1455 11.7766 41.2967 11.7766C40.4478 11.7766 39.7475 12.0525 39.1958 12.6042C38.6653 13.156 38.4 13.8669 38.4 14.737V24H34.1027V14.8325C34.1027 13.8987 33.848 13.156 33.3387 12.6042C32.8294 12.0525 32.1503 11.7766 31.3015 11.7766C30.4314 11.7766 29.7311 12.0525 29.2006 12.6042C28.6701 13.156 28.4048 13.8987 28.4048 14.8325V24H24.1075V8.24327H28.0547V9.64387C28.5852 9.09212 29.2324 8.6677 29.9964 8.3706C30.7604 8.05228 31.5986 7.89312 32.5111 7.89312C34.5908 7.89312 36.1505 8.64648 37.1904 10.1532C37.8058 9.45288 38.5591 8.90113 39.4504 8.49793C40.3629 8.09473 41.3603 7.89312 42.4426 7.89312ZM60.8605 7.89312C62.3248 7.89312 63.6299 8.25388 64.7758 8.9754C65.943 9.6757 66.8555 10.6519 67.5134 11.9039C68.1712 13.1348 68.5002 14.5354 68.5002 16.1057C68.5002 17.6761 68.1712 19.0873 67.5134 20.3393C66.8555 21.5914 65.943 22.5782 64.7758 23.2997C63.6299 24.0212 62.3248 24.382 60.8605 24.382C59.9056 24.382 59.0249 24.2228 58.2185 23.9045C57.4121 23.565 56.7224 23.0875 56.1494 22.4721V29.7297H51.8521V8.24327H55.7993V10.2168C56.3298 9.4741 57.0301 8.90113 57.9002 8.49793C58.7915 8.09473 59.7783 7.89312 60.8605 7.89312ZM60.0647 20.4667C61.2107 20.4667 62.1762 20.0741 62.9614 19.2889C63.7466 18.4825 64.1392 17.432 64.1392 16.1376C64.1392 14.8218 63.7466 13.7714 62.9614 12.9862C62.1975 12.1798 61.2319 11.7766 60.0647 11.7766C58.9825 11.7766 58.0487 12.148 57.2635 12.8907C56.4784 13.6122 56.0858 14.6839 56.0858 16.1057C56.0858 17.5063 56.4677 18.5886 57.2317 19.3526C58.0169 20.0953 58.9612 20.4667 60.0647 20.4667ZM71.2347 0.126172H75.532V24H71.2347V0.126172ZM93.6301 17.57H82.5845C82.8391 18.5674 83.3484 19.342 84.1124 19.8937C84.8976 20.4242 85.8631 20.6895 87.0091 20.6895C88.5582 20.6895 90.0225 20.159 91.4019 19.0979L93.1844 22.0264C91.317 23.5968 89.2161 24.382 86.8818 24.382C85.2477 24.382 83.7729 24.0212 82.4571 23.2997C81.1414 22.5782 80.1122 21.5914 79.3695 20.3393C78.6267 19.0661 78.2553 17.6655 78.2553 16.1376C78.2553 14.6096 78.6161 13.2196 79.3376 11.9676C80.0591 10.6943 81.0459 9.69692 82.298 8.9754C83.5713 8.25388 84.9719 7.89312 86.4998 7.89312C87.9428 7.89312 89.2267 8.22205 90.3514 8.87991C91.4761 9.51654 92.3462 10.3972 92.9616 11.5219C93.5983 12.6254 93.9166 13.8563 93.9166 15.2144C93.9166 15.9784 93.8211 16.7636 93.6301 17.57ZM86.3406 11.3628C85.4281 11.3628 84.6323 11.6493 83.9532 12.2222C83.2742 12.7952 82.8179 13.5698 82.5845 14.546H89.7466C89.7254 13.5698 89.3859 12.7952 88.728 12.2222C88.0701 11.6493 87.2743 11.3628 86.3406 11.3628Z" fill="white"></path><ellipse cx="18.6649" cy="6.46313" rx="3.08557" ry="3.09106" fill="#0EF073"></ellipse><path d="M8.59111 24.382C7.21173 24.382 5.95968 24.1167 4.83496 23.5862C3.71024 23.0344 2.78711 22.2811 2.06559 21.3261L4.23015 18.7159C5.60953 20.1377 7.0844 20.8487 8.65477 20.8487C9.22774 20.8487 9.70522 20.7425 10.0872 20.5303C10.4692 20.2969 10.6602 19.968 10.6602 19.5436C10.6602 19.204 10.5328 18.9494 10.2782 18.7796C10.0448 18.5886 9.63095 18.3658 9.03675 18.1111L7.34967 17.4108C5.90663 16.8166 4.82435 16.1588 4.10283 15.4373C3.40253 14.7157 3.05238 13.7714 3.05238 12.6042C3.05238 11.1187 3.58291 9.96219 4.64397 9.13456C5.72625 8.30694 7.12685 7.89312 8.84576 7.89312C11.2013 7.89312 13.09 8.67831 14.5118 10.2487L12.3473 12.8907C11.2862 11.8933 10.1084 11.3946 8.81393 11.3946C8.2834 11.3946 7.86959 11.4901 7.57249 11.6811C7.27539 11.8721 7.12685 12.148 7.12685 12.5087C7.12685 12.8058 7.24356 13.0499 7.47699 13.2409C7.73165 13.4319 8.16668 13.6547 8.7821 13.9093L10.31 14.546C11.8379 15.1614 12.9521 15.8298 13.6524 16.5514C14.3739 17.2517 14.7346 18.1854 14.7346 19.3526C14.7346 20.9229 14.1511 22.1538 12.9839 23.045C11.8379 23.9363 10.3737 24.382 8.59111 24.382Z" fill="white"></path><path d="M16.6162 38.9264H5.57056C5.82521 39.9238 6.33452 40.6984 7.09848 41.2501C7.88367 41.7807 8.84923 42.0459 9.99518 42.0459C11.5443 42.0459 13.0086 41.5154 14.388 40.4544L16.1705 43.3829C14.3031 44.9532 12.2022 45.7384 9.86785 45.7384C8.23382 45.7384 6.75895 45.3777 5.44323 44.6561C4.12752 43.9346 3.09829 42.9478 2.35555 41.6958C1.61281 40.4225 1.24144 39.0219 1.24144 37.494C1.24144 35.9661 1.6022 34.5761 2.32372 33.324C3.04524 32.0508 4.03202 31.0534 5.28407 30.3318C6.55734 29.6103 7.95794 29.2496 9.48587 29.2496C10.9289 29.2496 12.2128 29.5785 13.3375 30.2364C14.4622 30.873 15.3323 31.7537 15.9477 32.8784C16.5844 33.9819 16.9027 35.2127 16.9027 36.5709C16.9027 37.3348 16.8072 38.12 16.6162 38.9264ZM9.32671 32.7192C8.4142 32.7192 7.6184 33.0057 6.93933 33.5787C6.26025 34.1517 5.80399 34.9262 5.57056 35.9024H12.7327C12.7115 34.9262 12.3719 34.1517 11.7141 33.5787C11.0562 33.0057 10.2604 32.7192 9.32671 32.7192ZM29.0169 45.3564L25.6427 40.327L22.2367 45.3564H17.4301L23.1917 37.2393L17.8121 29.5997H22.6187L25.6427 34.1517L28.6349 29.5997H33.4415L28.0301 37.2075L33.8235 45.3564H29.0169ZM42.5046 45.7384C40.9555 45.7384 39.5336 45.3777 38.2392 44.6561C36.9659 43.9134 35.9473 42.916 35.1833 41.664C34.4406 40.3907 34.0692 38.9901 34.0692 37.4622C34.0692 35.9342 34.4406 34.5443 35.1833 33.2922C35.9473 32.0402 36.9659 31.0534 38.2392 30.3318C39.5336 29.6103 40.9555 29.2496 42.5046 29.2496C44.0538 29.2496 45.4119 29.5997 46.5791 30.3C47.7462 30.9791 48.6694 31.9234 49.3484 33.133L46.3563 35.4568C45.8682 34.7352 45.3164 34.1729 44.701 33.7697C44.1068 33.3665 43.3959 33.1649 42.5683 33.1649C41.3587 33.1649 40.3613 33.5787 39.5761 34.4063C38.8121 35.2127 38.4301 36.2313 38.4301 37.4622C38.4301 38.7142 38.8121 39.7541 39.5761 40.5817C40.3613 41.3881 41.3587 41.7913 42.5683 41.7913C43.3747 41.7913 44.075 41.6003 44.6692 41.2183C45.2846 40.8151 45.8469 40.2528 46.3563 39.5312L49.3484 41.8231C48.6694 43.0327 47.7356 43.9877 46.5472 44.688C45.3801 45.3883 44.0325 45.7384 42.5046 45.7384ZM60.5137 29.2496C62.2963 29.2496 63.7181 29.8332 64.7791 31.0003C65.8402 32.1463 66.3707 33.6742 66.3707 35.5841V45.3564H62.1053V36.1889C62.1053 35.2764 61.8294 34.5443 61.2776 33.9925C60.7471 33.4195 60.0468 33.133 59.1768 33.133C58.3067 33.133 57.5852 33.4195 57.0122 33.9925C56.4604 34.5443 56.1846 35.2764 56.1846 36.1889V45.3564H51.8873V21.4826H56.1846V30.9367C56.7151 30.4061 57.3517 29.9923 58.0945 29.6952C58.8372 29.3981 59.6436 29.2496 60.5137 29.2496ZM76.3328 29.2496C78.3913 29.2496 80.0253 29.8332 81.2349 31.0003C82.4657 32.1463 83.0812 33.8121 83.0812 35.9979V45.3564H79.134V43.8285C78.5611 44.4227 77.8608 44.8896 77.0331 45.2291C76.2267 45.5687 75.3248 45.7384 74.3274 45.7384C72.651 45.7384 71.3246 45.3034 70.3485 44.4333C69.3723 43.542 68.8842 42.4067 68.8842 41.0273C68.8842 39.6055 69.4147 38.4914 70.4758 37.685C71.5581 36.8574 73.0117 36.4436 74.8367 36.4436H78.7839V35.7433C78.7839 34.8732 78.5292 34.1941 78.0199 33.706C77.5318 33.2179 76.8103 32.9739 75.8554 32.9739C75.0489 32.9739 74.3274 33.1543 73.6908 33.515C73.0542 33.8546 72.3857 34.3957 71.6854 35.1384L69.4572 32.4964C71.2822 30.3318 73.5741 29.2496 76.3328 29.2496ZM75.4734 42.5871C76.4071 42.5871 77.1923 42.3006 77.8289 41.7276C78.4656 41.1334 78.7839 40.3801 78.7839 39.4676V39.2766H75.4097C74.7094 39.2766 74.1683 39.4145 73.7863 39.6904C73.4043 39.945 73.2133 40.3376 73.2133 40.8682C73.2133 41.3987 73.4149 41.8231 73.8181 42.1414C74.2425 42.4385 74.7943 42.5871 75.4734 42.5871ZM95.1429 29.2496C96.9679 29.2496 98.411 29.8332 99.472 31.0003C100.533 32.1463 101.064 33.6742 101.064 35.5841V45.3564H96.7982V36.1571C96.7982 35.2446 96.5223 34.5124 95.9705 33.9607C95.44 33.3877 94.7397 33.1012 93.8696 33.1012C92.9996 33.1012 92.2781 33.3877 91.7051 33.9607C91.1533 34.5124 90.8775 35.2446 90.8775 36.1571V45.3564H86.5802V29.5997H90.5273V31.0321C91.0791 30.4804 91.7475 30.0454 92.5327 29.727C93.3391 29.4087 94.2092 29.2496 95.1429 29.2496ZM120.384 29.5997V43.6057C120.384 46.1735 119.642 48.1258 118.156 49.4627C116.671 50.7997 114.697 51.4681 112.235 51.4681C109.264 51.4681 106.686 50.492 104.5 48.5396L106.76 45.5474C107.63 46.2053 108.458 46.704 109.243 47.0435C110.05 47.4043 110.93 47.5847 111.885 47.5847C113.158 47.5847 114.177 47.2664 114.941 46.6297C115.705 46.0143 116.087 45.0912 116.087 43.8604V43.0009C115.514 43.6163 114.814 44.0832 113.986 44.4015C113.18 44.7198 112.278 44.879 111.28 44.879C109.837 44.879 108.543 44.55 107.397 43.8922C106.251 43.2343 105.349 42.3112 104.691 41.1228C104.055 39.9344 103.736 38.5763 103.736 37.0484C103.736 35.4992 104.065 34.1411 104.723 32.9739C105.381 31.7855 106.283 30.873 107.429 30.2364C108.575 29.5785 109.859 29.2496 111.28 29.2496C112.405 29.2496 113.402 29.4512 114.273 29.8544C115.164 30.2576 115.885 30.8305 116.437 31.5733V29.5997H120.384ZM112.172 41.2501C113.254 41.2501 114.188 40.8788 114.973 40.136C115.758 39.3933 116.151 38.3428 116.151 36.9847C116.151 35.6265 115.758 34.6079 114.973 33.9288C114.209 33.2498 113.275 32.9102 112.172 32.9102C111.005 32.9102 110.028 33.2816 109.243 34.0243C108.479 34.7459 108.097 35.7433 108.097 37.0165C108.097 38.2898 108.49 39.319 109.275 40.1042C110.06 40.8682 111.026 41.2501 112.172 41.2501ZM138.492 38.9264H127.446C127.701 39.9238 128.21 40.6984 128.974 41.2501C129.76 41.7807 130.725 42.0459 131.871 42.0459C133.42 42.0459 134.884 41.5154 136.264 40.4544L138.046 43.3829C136.179 44.9532 134.078 45.7384 131.744 45.7384C130.11 45.7384 128.635 45.3777 127.319 44.6561C126.003 43.9346 124.974 42.9478 124.231 41.6958C123.489 40.4225 123.117 39.0219 123.117 37.494C123.117 35.9661 123.478 34.5761 124.2 33.324C124.921 32.0508 125.908 31.0534 127.16 30.3318C128.433 29.6103 129.834 29.2496 131.362 29.2496C132.805 29.2496 134.089 29.5785 135.213 30.2364C136.338 30.873 137.208 31.7537 137.824 32.8784C138.46 33.9819 138.779 35.2127 138.779 36.5709C138.779 37.3348 138.683 38.12 138.492 38.9264ZM131.203 32.7192C130.29 32.7192 129.494 33.0057 128.815 33.5787C128.136 34.1517 127.68 34.9262 127.446 35.9024H134.609C134.587 34.9262 134.248 34.1517 133.59 33.5787C132.932 33.0057 132.136 32.7192 131.203 32.7192Z" fill="white"></path></svg> 